<svg xmlns="http://www.w3.org/2000/svg" version="1.1" xmlns:xlink="http://www.w3.org/1999/xlink" xmlns:svgjs="http://svgjs.com/svgjs" width="100%" height="100%" viewBox="0 0 1000 600"><rect width="1000" height="600" x="0" y="0" fill="#3663bf"/><g><rect width="333.3333333333333" height="333.3333333333333" rx="13.333333333333334" ry="13.333333333333334" y="219.644512167681" fill="#161b21" transform="matrix(0.6331603512597201,0,0,0.6331603512597203,0,55.40304398141245)" x="197.42230224609372"/><path d="M237.5913431194301 416.6553208698192Q233.3579128280538 403.21759375138595 233.3579128280538 387.458308086069Q233.3579128280538 371.7263348742447 237.5913431194301 357.1141722556232L237.5913431194301 357.1141722556232Q241.90671077128468 342.146947741596 249.1171984933708 332.72415128659713L249.1171984933708 332.72415128659713Q256.6008107503844 322.8370431222214 266.3786691007891 317.1833652492221L266.3786691007891 317.1833652492221Q276.2930897186575 311.4204375622518 286.37138505748237 311.4204375622518L286.37138505748237 311.4204375622518Q286.8356967668592 311.4204375622518 287.32732092972867 311.4204375622518L287.32732092972867 311.4204375622518Q298.4708019547709 311.4204375622518 307.97553577024803 316.4186165514251L307.97553577024803 316.4186165514251Q314.5032121550154 319.8599856915116 318.32695564400046 323.4106046455692L318.32695564400046 323.4106046455692L319.0917043417975 323.51985445954017Q328.70568797124554 322.75510576174315 331.79199521592636 311.31118774828076L331.79199521592636 311.31118774828076L331.79199521592636 366.8374056990424Q326.79381622675305 347.2270640912476 320.0749526675364 336.11089551969815L320.0749526675364 336.11089551969815Q316.79745824840643 331.0034667165538 311.71734189875485 327.261660588047L311.71734189875485 327.261660588047Q303.85135529284264 321.49873290107666 293.090248616699 321.49873290107666L293.090248616699 321.49873290107666Q280.6903947309903 321.49873290107666 270.22972504326685 329.74709385588733L270.22972504326685 329.74709385588733Q262.6368629722823 338.48707897356746 258.13030814597846 354.81992616223226L258.13030814597846 354.81992616223226Q253.70569068015286 370.85233636247676 253.70569068015286 386.038060504446L253.70569068015286 386.038060504446Q253.70569068015286 386.6116220277937 253.70569068015286 387.2671209116197L253.70569068015286 387.2671209116197Q253.70569068015286 402.26165787913976 256.7919979248337 414.55226195087744L256.7919979248337 414.55226195087744Q263.8932358329488 435.6647885007735 273.8895938112954 443.94046190907693L273.8895938112954 443.94046190907693Q282.02870495213506 450.65932546829345 294.92018300071334 450.65932546829345L294.92018300071334 450.65932546829345Q297.10517928013337 450.65932546829345 299.4267378270172 450.4681382938443L299.4267378270172 450.4681382938443Q306.52797573513226 449.89457677049654 315.34989821329066 444.3228362579754L315.34989821329066 444.3228362579754Q320.2661398419857 441.3457788272656 326.3021920638836 433.752916756281L326.3021920638836 433.752916756281Q330.1532480063614 428.9459249415569 332.63868127420164 421.0799383356448L332.63868127420164 421.0799383356448L342.4438520780991 424.90368182462987Q338.78398331007054 433.26129259341144 333.9769914953464 439.7070316177005L333.9769914953464 439.7070316177005Q326.60262905230377 449.4848899681052 316.71552088792816 455.1658802945973L316.71552088792816 455.1658802945973Q305.8451643978135 461.3111823304662 291.8338757560325 461.3111823304662L291.8338757560325 461.3111823304662Q291.56075122110497 461.3111823304662 291.34225159316304 461.3111823304662L291.34225159316304 461.3111823304662Q276.67546406755605 461.3111823304662 266.5698562752383 455.54825464349585L266.5698562752383 455.54825464349585Q256.40962357593514 449.6760771425545 249.1171984933708 439.98015615262807L249.1171984933708 439.98015615262807Q241.90671077128468 430.39348497667265 237.5913431194301 416.6553208698192L237.5913431194301 416.6553208698192ZM413.2923564382937 458.9076864231041L357.79345094102484 458.9076864231041Q369.70168066386407 456.61344032971306 375.84698269973285 445.46995930467097L375.84698269973285 445.46995930467097L376.03816987418213 444.70521060687395L376.03816987418213 328.026409285844L375.84698269973285 327.261660588047Q369.70168066386407 316.1181795630048 357.79345094102484 313.82393346961385L357.79345094102484 313.82393346961385L413.2923564382937 313.82393346961385Q400.4281908432083 316.50055391190335 395.2388246795857 327.17972322756873L395.2388246795857 327.17972322756873L395.04763750513644 328.026409285844L395.04763750513644 397.26347888996634L457.56584355004213 397.26347888996634L457.56584355004213 328.026409285844L457.37465637559296 327.261660588047Q451.22935433972407 316.1181795630048 439.32112461688496 313.82393346961385L439.32112461688496 313.82393346961385L494.82003011415384 313.82393346961385Q481.9558645190684 316.50055391190335 476.7664983554457 327.17972322756873L476.7664983554457 327.17972322756873L476.57531118099655 328.026409285844L476.57531118099655 444.70521060687395L476.7664983554457 445.5518966651491Q481.9558645190684 456.2310659808146 494.82003011415384 458.9076864231041L494.82003011415384 458.9076864231041L439.32112461688496 458.9076864231041Q451.22935433972407 456.61344032971306 457.37465637559296 445.46995930467097L457.37465637559296 445.46995930467097L457.56584355004213 444.70521060687395L457.56584355004213 407.0686496938638L395.04763750513644 407.0686496938638L395.04763750513644 444.70521060687395L395.2388246795857 445.5518966651491Q400.4281908432083 456.2310659808146 413.2923564382937 458.9076864231041L413.2923564382937 458.9076864231041Z " fill="#3663bf" transform="matrix(0.6331603512597201,0,0,0.6331603512597203,0,55.40304398141245)"/><path d="M617.4458773743851 394.844248471592Q614.0889615091113 384.18874778956194 614.0889615091113 371.6923577620594Q614.0889615091113 359.2176252562682 617.4458773743851 347.6308511406462L617.4458773743851 347.6308511406462Q620.8677658047931 335.76252924277543 626.585351536614 328.2906842523276L626.585351536614 328.2906842523276Q632.5195124855494 320.45066139278526 640.2729052582459 315.96755439851654L640.2729052582459 315.96755439851654Q648.1345856394997 311.3978173174021 656.1262111510222 311.3978173174021L656.1262111510222 311.3978173174021Q656.4943890201167 311.3978173174021 656.8842244109227 311.3978173174021L656.8842244109227 311.3978173174021Q665.7204932691915 311.3978173174021 673.2573108247736 315.3611437905961L673.2573108247736 315.3611437905961Q678.4334585138085 318.08999152623795 681.4655115534106 320.90546934872555L681.4655115534106 320.90546934872555L682.0719221613309 320.9920994355713Q689.6953698037589 320.38568882765094 692.142669757152 311.3111872305563L692.142669757152 311.3111872305563L692.142669757152 355.34092886991994Q688.1793432839579 339.7908282811038 682.851592942943 330.97621694454654L682.851592942943 330.97621694454654Q680.2526903375698 326.9262603845067 676.2243912992413 323.959179910039L676.2243912992413 323.959179910039Q669.9870250463458 319.38944282892453 661.4539614920373 319.38944282892453L661.4539614920373 319.38944282892453Q651.6214466350422 319.38944282892453 643.3266158195594 325.9300143857803L643.3266158195594 325.9300143857803Q637.3058247837783 332.8604213334421 633.7323337013902 345.81161931688496L633.7323337013902 345.81161931688496Q630.2238151841365 358.524584561502 630.2238151841365 370.5661666330643L630.2238151841365 370.5661666330643Q630.2238151841365 371.0209745890046 630.2238151841365 371.5407551100793L630.2238151841365 371.5407551100793Q630.2238151841365 383.43073452966144 632.6711151375295 393.1766192998108L632.6711151375295 393.1766192998108Q638.3020707825046 409.9178835827563 646.2287237288928 416.48011266132346L646.2287237288928 416.48011266132346Q652.6826651989028 421.8078630023384 662.9050154467039 421.8078630023384L662.9050154467039 421.8078630023384Q664.6376171836193 421.8078630023384 666.478506529092 421.65626035035837L666.478506529092 421.65626035035837Q672.1094621740672 421.2014523944181 679.1048416868633 416.7833179652837L679.1048416868633 416.7833179652837Q683.003195594923 414.42264809873643 687.789507893152 408.4018570629553L687.789507893152 408.4018570629553Q690.8432184544654 404.59013324174134 692.8140529302067 398.3527669888457L692.8140529302067 398.3527669888457L700.5891032246147 401.38482002844773Q697.6869953152814 408.01202167214933 693.8752714940674 413.1231967960498L693.8752714940674 413.1231967960498Q688.0277406319777 420.87658956874645 680.1877177724355 425.3813540847266L680.1877177724355 425.3813540847266Q671.568024131281 430.25429646980126 660.4577154933108 430.25429646980126L660.4577154933108 430.25429646980126Q660.2411402761965 430.25429646980126 660.0678801025049 430.25429646980126L660.0678801025049 430.25429646980126Q648.43779094346 430.25429646980126 640.424507910226 425.6845593886868L640.424507910226 425.6845593886868Q632.3679098335693 421.0281922207265 626.585351536614 413.3397720131643L626.585351536614 413.3397720131643Q620.8677658047931 405.7379818924478 617.4458773743851 394.844248471592L617.4458773743851 394.844248471592ZM711.2446039066447 322.053317999432L711.2446039066447 322.053317999432Q715.1213002929929 320.38568882765094 734.5480972681573 313.3686517931434L734.5480972681573 313.3686517931434Q737.4285476557793 312.30743322928265 740.785463521053 311.3978173174021L740.785463521053 311.3978173174021L740.785463521053 417.0865232692439L740.937066173033 417.7579064422986Q745.0519952982072 426.2259974314728 755.2526880242968 428.3484345591943L755.2526880242968 428.3484345591943L711.2446039066447 428.3484345591943Q720.6872833728338 426.52920273543305 725.5602257579085 417.69293387716425L725.5602257579085 417.69293387716425L725.7118284098887 417.0865232692439L725.7118284098887 328.2906842523276Q725.7118284098887 326.4064798634321 724.7155824111622 325.6268090818201L724.7155824111622 325.6268090818201Q723.2645284564956 324.41398786597927 719.9292701129333 323.7426046929246L719.9292701129333 323.7426046929246Q711.9376446014109 322.1399480862778 711.2446039066447 322.053317999432ZM783.1908910320584 387.0908556988953L783.1908910320584 387.0908556988953Q783.1908910320584 404.2219553726468 787.0026148532723 412.3651835361493L787.0026148532723 412.3651835361493Q791.9621873251928 422.9340541313335 800.5602234446357 422.9340541313335L800.5602234446357 422.9340541313335Q801.7080720953421 422.9340541313335 802.8342632243372 422.9340541313335L802.8342632243372 422.9340541313335Q809.1582595640785 422.9340541313335 815.0274479478795 417.0865232692439L815.0274479478795 417.0865232692439L815.78546120778 415.93867461853745Q816.9333098584865 414.72585340269666 816.9333098584865 410.82749949463687L816.9333098584865 410.82749949463687L816.9333098584865 363.852334902517Q816.9333098584865 359.9756385161687 815.8504337729144 358.7628173003279L815.8504337729144 358.7628173003279L815.0924205130138 357.61496864962146Q809.2448896509243 351.7457802658204 802.9208933111829 351.7457802658204L802.9208933111829 351.7457802658204Q801.7730446604764 351.7457802658204 800.62519600977 351.7457802658204L800.62519600977 351.7457802658204Q792.0271598903271 351.7457802658204 787.0892449401181 362.33630838271597L787.0892449401181 362.33630838271597Q783.1908910320584 370.63113919819864 783.1908910320584 387.0908556988953ZM766.6662019662273 386.39781500412914L766.6662019662273 386.39781500412914Q766.6662019662273 375.13590371417877 771.1709664822075 365.45499150916373L771.1709664822075 365.45499150916373Q775.6540734764761 355.7091067390145 783.4940963360185 350.1431236591736L783.4940963360185 350.1431236591736Q791.5723519343868 344.4471954490641 801.6214420084964 344.4471954490641L801.6214420084964 344.4471954490641Q810.3710807799193 344.4471954490641 823.1706761113821 348.9303024433327L823.1706761113821 348.9303024433327Q841.5145970009743 355.40590143505426 846.4741694728948 357.61496864962146L846.4741694728948 357.61496864962146Q844.7848827794022 357.6799412147558 837.6379006146261 359.28259782140253L837.6379006146261 359.28259782140253Q834.5841900533126 359.9756385161687 832.9815334466658 361.1884597320095L832.9815334466658 361.1884597320095Q832.0069449696508 361.94647299191 832.0069449696508 363.852334902517L832.0069449696508 363.852334902517L832.0069449696508 410.82749949463687Q832.0069449696508 412.81999149208957 832.9165608815315 413.49137466514435L832.9165608815315 413.49137466514435Q834.5192174881782 414.72585340269666 837.5512705277803 415.3972365757513L837.5512705277803 415.3972365757513Q844.719910214268 416.9998931823982 846.3875393860491 417.0865232692439L846.3875393860491 417.0865232692439Q841.4496244358401 419.2955904838111 823.0840460245364 425.74953195382113L823.0840460245364 425.74953195382113Q810.306108214785 430.25429646980126 801.5564694433621 430.25429646980126L801.5564694433621 430.25429646980126Q791.485721847541 430.25429646980126 783.4291237708842 424.53671073798034L783.4291237708842 424.53671073798034Q775.5891009113419 418.9923851798509 771.0843363953617 409.2465004097015L771.0843363953617 409.2465004097015Q766.6662019662273 399.71719085666666 766.6662019662273 386.39781500412914ZM856.3716568950242 408.4018570629553L856.3716568950242 408.4018570629553Q856.3716568950242 404.2219553726468 859.2521072826462 401.2765324198905Q862.1542151919796 398.3527669888457 866.2691443171537 398.3527669888457Q870.3840734423278 398.3527669888457 873.2645238299498 401.2765324198905Q876.1666317392832 404.2219553726468 876.1666317392832 408.4018570629553L876.1666317392832 408.4018570629553Q876.1666317392832 412.27855344930356 873.2645238299498 415.5488392277315L873.2645238299498 415.5488392277315Q872.6581132220293 416.24187992249756 871.9000999621288 416.848290530418L871.9000999621288 416.848290530418L872.8097158740095 417.6063037903185Q879.675150256537 422.7824514793534 888.7279943319201 422.7824514793534L888.7279943319201 422.7824514793534Q888.7929668970545 422.7824514793534 888.9445695490346 422.7824514793534L888.9445695490346 422.7824514793534Q896.1781818006565 422.7824514793534 900.899521533751 418.9923851798509L900.899521533751 418.9923851798509Q905.0144506589253 415.6354693145772 905.3176559628854 407.34063849909455L905.3176559628854 407.34063849909455L905.3176559628854 405.88958454442786Q904.9494780937908 397.74635638092525 897.6292357553232 395.29905642753226L897.6292357553232 395.29905642753226L876.9246449991837 389.2132928266168Q865.2728983184273 385.7914043962088 862.3058178439596 372.6886037607858L862.3058178439596 372.6886037607858Q862.0026125399994 370.41456398108426 862.0026125399994 368.20549676651706L862.0026125399994 368.20549676651706Q862.0026125399994 360.6686792109349 868.0234035757805 353.2834643073328L868.0234035757805 353.2834643073328Q875.2570158274026 344.4471954490641 888.186556289134 344.4471954490641L888.186556289134 344.4471954490641Q900.2931109258307 344.4471954490641 908.8261744801392 352.5037935257209L908.8261744801392 352.5037935257209Q911.6416523026268 355.16766869622836 913.1576788224278 358.0048040404274L913.1576788224278 358.0048040404274Q914.3055274731342 360.12724116814877 914.3055274731342 362.8777464255021L914.3055274731342 362.8777464255021Q914.3055274731342 366.97101802896475 911.4250770855124 369.959756025144Q908.522969176179 372.92683649961157 904.4080400510048 372.92683649961157Q900.2931109258307 372.92683649961157 897.4126605382088 369.959756025144Q894.5105526288754 366.97101802896475 894.5105526288754 362.79111633865625Q894.5105526288754 358.61121464834775 897.4126605382088 355.7091067390145L897.4126605382088 355.7091067390145L898.842056971164 354.7128607402881Q894.2073473249152 352.1356156566263 888.2731863759798 352.1356156566263L888.2731863759798 352.1356156566263L888.034953637154 352.1356156566263Q882.9454360349648 352.5037935257209 878.8305069097906 355.9473394778403L878.8305069097906 355.9473394778403Q875.473591044517 359.4342004733826 875.473591044517 365.90979946510413L875.473591044517 365.90979946510413Q875.473591044517 366.45123750789014 875.473591044517 366.97101802896475L875.473591044517 366.97101802896475Q875.473591044517 373.38164445555196 881.9491900362384 376.11049219119377L881.9491900362384 376.11049219119377L899.9899056218704 380.8318319242883Q907.9165585682587 383.73393983362166 911.7932549546068 387.0908556988953L911.7932549546068 387.0908556988953Q919.1134972930746 393.3931945169253 919.2650999450547 406.0411871964079L919.2650999450547 406.0411871964079Q918.5070866851541 415.3972365757513 910.8836390427263 423.32388952213944L910.8836390427263 423.32388952213944Q904.1048347470446 430.25429646980126 888.57639167994 430.25429646980126L888.57639167994 430.25429646980126Q874.9538105234424 430.25429646980126 864.6664877105069 421.41802761153247L864.6664877105069 421.41802761153247Q859.3387373694919 416.7833179652837 857.6711081977109 413.49137466514435L857.6711081977109 413.49137466514435Q857.194642720059 412.5817587532638 856.9780675029447 411.97534814534333L856.9780675029447 411.97534814534333Q856.3716568950242 410.3726915386966 856.3716568950242 408.4018570629553ZM932.9526536666867 408.4018570629553L932.9526536666867 408.4018570629553Q932.9526536666867 404.2219553726468 935.85476157602 401.2765324198905Q938.7568694853534 398.3527669888457 942.8717986105277 398.3527669888457Q946.9650702139903 398.3527669888457 949.8671781233237 401.2765324198905Q952.7692860326571 404.2219553726468 952.7692860326571 408.4018570629553L952.7692860326571 408.4018570629553Q952.7692860326571 412.27855344930356 949.8671781233237 415.5488392277315L949.8671781233237 415.5488392277315Q949.2607675154032 416.24187992249756 948.5027542555027 416.848290530418L948.5027542555027 416.848290530418L949.4123701673833 417.6063037903185Q956.2561470281994 422.7824514793534 965.330648625294 422.7824514793534L965.330648625294 422.7824514793534Q965.3956211904283 422.7824514793534 965.5472238424085 422.7824514793534L965.5472238424085 422.7824514793534Q972.7808360940304 422.7824514793534 977.5021758271249 418.9923851798509L977.5021758271249 418.9923851798509Q981.6171049522992 415.6354693145772 981.9203102562593 407.34063849909455L981.9203102562593 407.34063849909455L981.9203102562593 405.88958454442786Q981.5304748654534 397.74635638092525 974.2318900486971 395.29905642753226L974.2318900486971 395.29905642753226L953.5272992925576 389.2132928266168Q941.8755526118013 385.7914043962088 938.9084721373335 372.6886037607858L938.9084721373335 372.6886037607858Q938.6052668333733 370.41456398108426 938.6052668333733 368.20549676651706L938.6052668333733 368.20549676651706Q938.6052668333733 360.6686792109349 944.6044003474431 353.2834643073328L944.6044003474431 353.2834643073328Q951.8380125990651 344.4471954490641 964.789210582508 344.4471954490641L964.789210582508 344.4471954490641Q976.8957652192046 344.4471954490641 985.4288287735131 352.5037935257209L985.4288287735131 352.5037935257209Q988.2443065960007 355.16766869622836 989.7603331158017 358.0048040404274L989.7603331158017 358.0048040404274Q990.9081817665082 360.12724116814877 990.9081817665082 362.8777464255021L990.9081817665082 362.8777464255021Q990.9081817665082 366.97101802896475 988.0060738571748 369.959756025144Q985.1256234695528 372.92683649961157 981.0106943443787 372.92683649961157Q976.8957652192046 372.92683649961157 973.9936573098712 369.959756025144Q971.1132069222492 366.97101802896475 971.1132069222492 362.79111633865625Q971.1132069222492 358.61121464834775 973.9936573098712 355.7091067390145L973.9936573098712 355.7091067390145L975.4447112645379 354.7128607402881Q970.810001618289 352.1356156566263 964.8758406693537 352.1356156566263L964.8758406693537 352.1356156566263L964.6376079305279 352.1356156566263Q959.5264328066272 352.5037935257209 955.4331612031646 355.9473394778403L955.4331612031646 355.9473394778403Q952.0762453378909 359.4342004733826 952.0762453378909 365.90979946510413L952.0762453378909 365.90979946510413Q952.0762453378909 366.45123750789014 952.0762453378909 366.97101802896475L952.0762453378909 366.97101802896475Q952.0762453378909 373.38164445555196 958.5518443296124 376.11049219119377L958.5518443296124 376.11049219119377L976.5925599152444 380.8318319242883Q984.5192128616326 383.73393983362166 988.3959092479807 387.0908556988953L988.3959092479807 387.0908556988953Q995.6944940647371 393.3931945169253 995.8460967167172 406.0411871964079L995.8460967167172 406.0411871964079Q995.0880834568167 415.3972365757513 987.4862933361002 423.32388952213944L987.4862933361002 423.32388952213944Q980.7074890404185 430.25429646980126 965.1790459733139 430.25429646980126L965.1790459733139 430.25429646980126Q951.5348072951048 430.25429646980126 941.2691420038808 421.41802761153247L941.2691420038808 421.41802761153247Q935.9413916628658 416.7833179652837 934.2521049693734 413.49137466514435L934.2521049693734 413.49137466514435Q933.797297013433 412.5817587532638 933.5807217963186 411.97534814534333L933.5807217963186 411.97534814534333Q932.9526536666867 410.3726915386966 932.9526536666867 408.4018570629553ZM1096.9650655874448 428.3484345591943L1052.9569814697925 428.3484345591943Q1062.3996609359815 426.52920273543305 1067.272603321056 417.69293387716425L1067.272603321056 417.69293387716425L1067.4242059730364 417.0865232692439L1067.4242059730364 324.56559051795944L1067.272603321056 323.959179910039Q1062.3996609359815 315.12291105177025 1052.9569814697925 313.30367922800906L1052.9569814697925 313.30367922800906L1096.9650655874448 313.30367922800906Q1086.7643728613548 315.4261163557304 1082.6494437361807 323.89420734490466L1082.6494437361807 323.89420734490466L1082.497841084201 324.56559051795944L1082.497841084201 379.46740805646743L1132.0719082816936 379.46740805646743L1132.0719082816936 324.56559051795944L1131.9203056297138 323.959179910039Q1127.0473632446387 315.12291105177025 1117.6046837784497 313.30367922800906L1117.6046837784497 313.30367922800906L1161.612767896102 313.30367922800906Q1151.4120751700125 315.4261163557304 1147.297146044838 323.89420734490466L1147.297146044838 323.89420734490466L1147.1455433928581 324.56559051795944L1147.1455433928581 417.0865232692439L1147.297146044838 417.7579064422986Q1151.4120751700125 426.2259974314728 1161.612767896102 428.3484345591943L1161.612767896102 428.3484345591943L1117.6046837784497 428.3484345591943Q1127.0473632446387 426.52920273543305 1131.9203056297138 417.69293387716425L1131.9203056297138 417.69293387716425L1132.0719082816936 417.0865232692439L1132.0719082816936 387.2424583508754L1082.497841084201 387.2424583508754L1082.497841084201 417.0865232692439L1082.6494437361807 417.7579064422986Q1086.7643728613548 426.2259974314728 1096.9650655874448 428.3484345591943L1096.9650655874448 428.3484345591943ZM1174.5639658795449 387.3074309160098L1174.5639658795449 387.3074309160098Q1174.5639658795449 375.8939169740793 1179.112045438948 365.8448268999698L1179.112045438948 365.8448268999698Q1183.6168099549282 355.9473394778403 1191.3918602493359 350.1431236591736L1191.3918602493359 350.1431236591736Q1199.0802804568984 344.4471954490641 1208.3496997493958 344.4471954490641L1208.3496997493958 344.4471954490641Q1217.1859686076646 344.4471954490641 1225.0259914672074 349.6233431380989L1225.0259914672074 349.6233431380989Q1230.743577199028 352.7420262645468 1235.2483417150083 360.2138712549946L1235.2483417150083 360.2138712549946Q1238.4319974065902 365.5416215960096 1238.8218327973964 371.7789878489051L1238.8218327973964 371.7789878489051Q1238.7352027105503 385.2499663534227 1226.7152781606997 393.8480024728656L1226.7152781606997 393.8480024728656Q1216.5145854346101 401.16824481133324 1202.5671414524409 401.16824481133324L1202.5671414524409 401.16824481133324Q1202.4155388004606 401.16824481133324 1191.6950655532964 400.5618342034129L1191.6950655532964 400.5618342034129Q1193.5792699421918 408.4018570629553 1196.7845831554855 413.27479944802997L1196.7845831554855 413.27479944802997Q1202.198963583346 421.5046576983783 1210.9486023547693 421.5046576983783L1210.9486023547693 421.5046576983783L1211.100205006749 421.5046576983783Q1220.4562543860925 421.5046576983783 1227.0184834646598 413.42640210001L1227.0184834646598 413.42640210001Q1229.6823586351675 410.1561163215821 1231.8047957628887 404.43853058976117L1231.8047957628887 404.43853058976117L1240.6410646211575 407.0374331951343Q1240.3378593171974 408.2502544109751 1240.121284100083 408.7050623669155L1240.121284100083 408.7050623669155Q1233.710657673496 420.42178161280617 1227.8414692896945 424.3851080860002L1227.8414692896945 424.3851080860002Q1218.3338172583713 430.1676663829554 1209.7357811389284 430.1676663829554L1209.7357811389284 430.1676663829554L1209.4975484001025 430.1676663829554Q1199.0802804568984 430.1676663829554 1191.3918602493359 424.53671073798034Q1183.6817825200624 418.90575509300515 1179.112045438948 408.85666501889557Q1174.5639658795449 398.807574944786 1174.5639658795449 387.3074309160098ZM1224.5062109461323 371.6923577620594L1224.5062109461323 371.6923577620594Q1224.5062109461323 363.0943216426165 1219.936473865018 358.1564066924075L1219.936473865018 358.1564066924075Q1215.973147391824 353.8032448284074 1208.9777678790279 353.19683422048706L1208.9777678790279 353.19683422048706L1208.8261652270476 353.19683422048706Q1200.4447043247192 353.19683422048706 1195.4201592876643 361.34006238398956L1195.4201592876643 361.34006238398956Q1191.6084354664504 367.5990861585966 1190.69881955457 376.8685054510943L1190.69881955457 376.8685054510943Q1190.157381511784 382.28288587895497 1190.157381511784 388.60688221869634L1190.157381511784 388.60688221869634Q1190.157381511784 390.7293193464177 1190.4605868157441 393.54479716890535L1190.4605868157441 393.54479716890535Q1197.3909937634057 393.6963998208854 1204.3214007110678 393.6963998208854L1204.3214007110678 393.6963998208854Q1207.8948917934558 393.6963998208854 1209.4325758349682 393.32822195179097L1209.4325758349682 393.32822195179097Q1217.1209960425304 391.422360041184 1220.0880765169982 386.91759552520386L1220.0880765169982 386.91759552520386Q1224.5062109461323 379.53238062160176 1224.5062109461323 371.6923577620594ZM1252.054578563088 322.053317999432L1252.054578563088 322.053317999432Q1255.9529324711475 320.38568882765094 1275.3580719246006 313.3686517931434L1275.3580719246006 313.3686517931434Q1278.2601798339342 312.30743322928265 1281.6170956992078 311.3978173174021L1281.6170956992078 311.3978173174021L1281.6170956992078 417.0865232692439L1281.7686983511876 417.7579064422986Q1285.8619699546507 426.2259974314728 1296.0626626807402 428.3484345591943L1296.0626626807402 428.3484345591943L1252.054578563088 428.3484345591943Q1261.497258029277 426.52920273543305 1266.370200414352 417.69293387716425L1266.370200414352 417.69293387716425L1266.5218030663318 417.0865232692439L1266.5218030663318 328.2906842523276Q1266.5218030663318 326.4064798634321 1265.5472145893168 325.6268090818201L1265.5472145893168 325.6268090818201Q1264.0961606346505 324.41398786597927 1260.7392447693765 323.7426046929246L1260.7392447693765 323.7426046929246Q1252.7476192578542 322.1399480862778 1252.054578563088 322.053317999432ZM1365.3667321573575 387.61063621996993L1365.3667321573575 387.61063621996993Q1365.3667321573575 370.4795365462186 1361.5550083361436 362.33630838271597L1361.5550083361436 362.33630838271597Q1356.5954358642234 351.7457802658204 1346.8495510940738 351.7457802658204L1346.8495510940738 351.7457802658204Q1339.4643361904718 351.7457802658204 1333.5301752415367 357.61496864962146L1333.5301752415367 357.61496864962146L1332.7721619816361 358.7628173003279Q1331.7109434177755 359.9756385161687 1331.7109434177755 363.852334902517L1331.7109434177755 363.852334902517L1331.7109434177755 408.77003493204984L1331.7109434177755 409.4630756268159Q1331.8625460697554 411.910375580209 1333.9200106323424 414.94242861981104L1333.9200106323424 414.94242861981104Q1337.9483096706708 420.9632196555922 1345.9399351821935 420.9632196555922L1345.9399351821935 420.9632196555922Q1346.0915378341733 420.9632196555922 1346.1781679210194 420.9632196555922L1346.1781679210194 420.9632196555922Q1355.4692447352281 420.9632196555922 1360.493789772283 412.73336140524384L1360.493789772283 412.73336140524384Q1365.3667321573575 404.43853058976117 1365.3667321573575 387.61063621996993ZM1346.1781679210194 461.31118260401047L1302.170083803367 461.31118260401047Q1311.6127632695561 459.49195078024934 1316.4857056546307 450.65568192198054L1316.4857056546307 450.65568192198054L1316.637308306611 450.0492713140601L1316.637308306611 363.852334902517Q1316.637308306611 362.03310307875574 1315.6410623078846 361.1884597320095L1315.6410623078846 361.1884597320095Q1314.2766384400638 359.9756385161687 1311.006352661636 359.28259782140253L1311.006352661636 359.28259782140253Q1304.1409182791085 357.7665713016015 1302.170083803367 357.61496864962146L1302.170083803367 357.61496864962146Q1307.1079987535759 355.40590143505426 1325.4735771648798 348.9303024433327L1325.4735771648798 348.9303024433327Q1338.251514974631 344.4471954490641 1347.5425917888401 344.4471954490641L1347.5425917888401 344.4471954490641Q1347.8457970928002 344.4471954490641 1348.1490023967604 344.4471954490641L1348.1490023967604 344.4471954490641Q1357.0719013418752 344.4471954490641 1365.128499418532 350.1431236591736L1365.128499418532 350.1431236591736Q1372.9035497129398 355.64413417388016 1377.4732867940543 365.45499150916373L1377.4732867940543 365.45499150916373Q1381.956393788323 375.13590371417877 1381.956393788323 386.39781500412914L1381.956393788323 386.39781500412914Q1381.956393788323 398.95917759676615 1377.3866567072087 408.85666501889557L1377.3866567072087 408.85666501889557Q1372.75194706096 418.90575509300515 1365.128499418532 424.53671073798034L1365.128499418532 424.53671073798034Q1357.4400792109695 430.25429646980126 1348.1490023967604 430.25429646980126L1348.1490023967604 430.25429646980126Q1339.2477609733573 430.25429646980126 1331.7109434177755 424.9265461287863L1331.7109434177755 424.9265461287863L1331.7109434177755 450.0492713140601L1331.8625460697554 450.7423120088263Q1335.9774751949294 459.1887454762891 1346.1781679210194 461.31118260401047L1346.1781679210194 461.31118260401047Z " fill="#161b21" transform="matrix(0.6331603512597201,0,0,0.6331603512597203,0,55.40304398141245)"/></g></svg>